<svg width="57" height="44" viewBox="0 0 57 44" fill="none" xmlns="http://www.w3.org/2000/svg">
<path d="M22.5469 11H29.3125V31.7812C29.3125 34.1146 28.7552 36.1562 27.6406 37.9062C26.5365 39.6562 24.9896 41.0208 23 42C21.0104 42.9688 18.6927 43.4531 16.0469 43.4531C13.3906 43.4531 11.0677 42.9688 9.07813 42C7.08854 41.0208 5.54167 39.6562 4.4375 37.9062C3.33333 36.1562 2.78125 34.1146 2.78125 31.7812V11H9.54688V31.2031C9.54688 32.4219 9.8125 33.5052 10.3438 34.4531C10.8854 35.401 11.6458 36.1458 12.625 36.6875C13.6042 37.2292 14.7448 37.5 16.0469 37.5C17.3594 37.5 18.5 37.2292 19.4688 36.6875C20.4479 36.1458 21.2031 35.401 21.7344 34.4531C22.276 33.5052 22.5469 32.4219 22.5469 31.2031V11Z" fill="#FF7A00"/>
<path d="M52.0156 22.2031H45.1719C45.0469 21.3177 44.7917 20.5312 44.4063 19.8437C44.0208 19.1458 43.526 18.5521 42.9219 18.0625C42.3177 17.5729 41.6198 17.1979 40.8281 16.9375C40.0469 16.6771 39.1979 16.5469 38.2813 16.5469C36.625 16.5469 35.1823 16.9583 33.9531 17.7812C32.724 18.5937 31.7708 19.7812 31.0938 21.3438C30.4167 22.8958 30.0781 24.7812 30.0781 27C30.0781 29.2812 30.4167 31.1979 31.0938 32.75C31.7813 34.3021 32.7396 35.474 33.9687 36.2656C35.1979 37.0573 36.6198 37.4531 38.2344 37.4531C39.1406 37.4531 39.9792 37.3333 40.75 37.0938C41.5313 36.8542 42.224 36.5052 42.8281 36.0469C43.4323 35.5781 43.9323 35.0104 44.3281 34.3438C44.7344 33.6771 45.0156 32.9167 45.1719 32.0625L52.0156 32.0937C51.8385 33.5625 51.3958 34.9792 50.6875 36.3438C49.9896 37.6979 49.0469 38.9115 47.8594 39.9844C46.6823 41.0469 45.276 41.8906 43.6406 42.5156C42.0156 43.1302 40.1771 43.4375 38.125 43.4375C35.2708 43.4375 32.7188 42.7917 30.4688 41.5C28.2292 40.2083 26.4583 38.3385 25.1562 35.8906C23.8646 33.4427 23.2188 30.4792 23.2188 27C23.2188 23.5104 23.875 20.5417 25.1875 18.0938C26.5 15.6458 28.2813 13.7812 30.5313 12.5C32.7813 11.2083 35.3125 10.5625 38.125 10.5625C39.9792 10.5625 41.6979 10.8229 43.2813 11.3437C44.875 11.8646 46.2865 12.625 47.5156 13.625C48.7448 14.6146 49.7448 15.8281 50.5156 17.2656C51.2969 18.7031 51.7969 20.349 52.0156 22.2031Z" fill="#FF7A00"/>
</svg>
